<mxfile host="app.diagrams.net" modified="2022-01-26T08:21:30.565Z" agent="5.0 (Macintosh; Intel Mac OS X 10_15_7) AppleWebKit/537.36 (KHTML, like Gecko) Chrome/97.0.4692.71 Safari/537.36" etag="zK3sH_bo-irge8lPJxun" version="15.3.4" type="github">
  <diagram id="nVtK3s1Wpxz3lFkNuYpC" name="Page-1">
    <mxGraphModel dx="1186" dy="740" grid="1" gridSize="10" guides="1" tooltips="1" connect="1" arrows="1" fold="1" page="1" pageScale="1" pageWidth="827" pageHeight="1169" math="0" shadow="0">
      <root>
        <mxCell id="0" />
        <mxCell id="1" parent="0" />
        <mxCell id="F4ZI9uTE3mU7DogcvD38-1" value="上层" style="rounded=0;whiteSpace=wrap;html=1;" parent="1" vertex="1">
          <mxGeometry x="80" y="170" width="120" height="420" as="geometry" />
        </mxCell>
        <mxCell id="F4ZI9uTE3mU7DogcvD38-3" value="" style="swimlane;startSize=0;" parent="1" vertex="1">
          <mxGeometry x="280" y="170" width="200" height="70" as="geometry">
            <mxRectangle x="290" y="200" width="50" height="40" as="alternateBounds" />
          </mxGeometry>
        </mxCell>
        <mxCell id="F4ZI9uTE3mU7DogcvD38-5" value="JRClient&lt;br&gt;" style="text;html=1;strokeColor=none;fillColor=none;align=center;verticalAlign=middle;whiteSpace=wrap;rounded=0;" parent="F4ZI9uTE3mU7DogcvD38-3" vertex="1">
          <mxGeometry x="40" y="25" width="40" height="20" as="geometry" />
        </mxCell>
        <mxCell id="F4ZI9uTE3mU7DogcvD38-9" value="" style="swimlane;startSize=0;" parent="1" vertex="1">
          <mxGeometry x="290" y="290" width="200" height="70" as="geometry">
            <mxRectangle x="290" y="200" width="50" height="40" as="alternateBounds" />
          </mxGeometry>
        </mxCell>
        <mxCell id="F4ZI9uTE3mU7DogcvD38-10" value="JRAccount" style="text;html=1;strokeColor=none;fillColor=none;align=center;verticalAlign=middle;whiteSpace=wrap;rounded=0;" parent="F4ZI9uTE3mU7DogcvD38-9" vertex="1">
          <mxGeometry x="40" y="25" width="40" height="20" as="geometry" />
        </mxCell>
      </root>
    </mxGraphModel>
  </diagram>
</mxfile>
